<svg width="377" height="222" viewBox="0 0 377 222" fill="none" xmlns="http://www.w3.org/2000/svg">
<path d="M0 0H377V222H0V0Z" fill="#54C5ED"/>
<path fill-rule="evenodd" clip-rule="evenodd" d="M65.5703 222C66.5777 194.957 71.0715 166.871 75.6536 141.372C81.2102 110.449 96.9976 89.5643 113.176 68.1615C119.351 59.9927 125.583 51.7485 131.325 42.8421C137.905 32.6367 143.736 20.792 149.528 9.02842C151.017 6.00383 152.503 2.98461 153.999 0H253.52C257.938 0 261.52 3.58172 261.52 8V214C261.52 218.418 257.938 222 253.52 222H65.5703Z" fill="#50C0E8"/>
<path fill-rule="evenodd" clip-rule="evenodd" d="M180.607 222C181.615 194.957 186.109 166.871 190.691 141.372C196.247 110.449 212.035 89.5643 228.214 68.1615C234.389 59.9927 240.621 51.7485 246.362 42.8421C252.942 32.6367 258.773 20.792 264.565 9.02842C266.054 6.00383 267.54 2.98461 269.036 0H368.557C372.975 0 376.557 3.58172 376.557 8V214C376.557 218.418 372.975 222 368.557 222H180.607Z" fill="#46B5DD"/>
</svg>
